<mxfile host="app.diagrams.net" modified="2023-11-23T09:03:57.760Z" agent="Mozilla/5.0 (Windows NT 10.0; Win64; x64) AppleWebKit/537.36 (KHTML, like Gecko) Chrome/109.0.0.0 Safari/537.36" etag="Sp2QDWuo_AFAWeSU6GIb" version="22.1.3" type="github">
  <diagram name="Page-1" id="74e2e168-ea6b-b213-b513-2b3c1d86103e">
    <mxGraphModel dx="2150" dy="523" grid="0" gridSize="10" guides="1" tooltips="1" connect="1" arrows="1" fold="1" page="1" pageScale="1" pageWidth="1100" pageHeight="850" background="none" math="0" shadow="0">
      <root>
        <mxCell id="0" />
        <mxCell id="1" parent="0" />
        <mxCell id="77e6c97f196da883-1" value="&lt;font style=&quot;font-size: 12px;&quot;&gt;Event From Dispatch state machine to AppAsync&lt;/font&gt;" style="swimlane;html=1;childLayout=stackLayout;startSize=20;rounded=0;shadow=0;labelBackgroundColor=none;strokeWidth=1;fontFamily=Verdana;fontSize=8;align=center;" parent="1" vertex="1">
          <mxGeometry x="-4" y="60" width="1038" height="883" as="geometry">
            <mxRectangle x="-4" y="60" width="362" height="26" as="alternateBounds" />
          </mxGeometry>
        </mxCell>
        <mxCell id="77e6c97f196da883-2" value="State machine" style="swimlane;html=1;startSize=21;" parent="77e6c97f196da883-1" vertex="1">
          <mxGeometry y="20" width="201" height="863" as="geometry">
            <mxRectangle y="20" width="32" height="863" as="alternateBounds" />
          </mxGeometry>
        </mxCell>
        <mxCell id="QIpghgLkvMzr6BpzST6K-3" style="edgeStyle=orthogonalEdgeStyle;rounded=0;orthogonalLoop=1;jettySize=auto;html=1;entryX=0.5;entryY=0;entryDx=0;entryDy=0;" parent="77e6c97f196da883-2" source="77e6c97f196da883-8" target="Maf3ZS-bsNXaos74aWMZ-1" edge="1">
          <mxGeometry relative="1" as="geometry" />
        </mxCell>
        <mxCell id="77e6c97f196da883-8" value="&lt;span style=&quot;font-size: 11px;&quot;&gt;Init state&lt;/span&gt;" style="rounded=1;whiteSpace=wrap;html=1;shadow=0;labelBackgroundColor=none;strokeWidth=1;fontFamily=Verdana;fontSize=8;align=center;" parent="77e6c97f196da883-2" vertex="1">
          <mxGeometry x="44" y="38" width="100" height="60" as="geometry" />
        </mxCell>
        <mxCell id="QIpghgLkvMzr6BpzST6K-4" style="edgeStyle=orthogonalEdgeStyle;rounded=0;orthogonalLoop=1;jettySize=auto;html=1;" parent="77e6c97f196da883-2" source="Maf3ZS-bsNXaos74aWMZ-1" edge="1">
          <mxGeometry relative="1" as="geometry">
            <mxPoint x="230.20004272460938" y="157" as="targetPoint" />
          </mxGeometry>
        </mxCell>
        <mxCell id="QIpghgLkvMzr6BpzST6K-18" style="edgeStyle=orthogonalEdgeStyle;rounded=0;orthogonalLoop=1;jettySize=auto;html=1;entryX=0.5;entryY=0;entryDx=0;entryDy=0;" parent="77e6c97f196da883-2" source="Maf3ZS-bsNXaos74aWMZ-1" target="Maf3ZS-bsNXaos74aWMZ-2" edge="1">
          <mxGeometry relative="1" as="geometry">
            <mxPoint x="94" y="363.60003662109375" as="targetPoint" />
          </mxGeometry>
        </mxCell>
        <mxCell id="Maf3ZS-bsNXaos74aWMZ-1" value="&lt;font style=&quot;font-size: 11px;&quot;&gt;Put event with PENDING state&lt;/font&gt;" style="rounded=1;whiteSpace=wrap;html=1;shadow=0;labelBackgroundColor=none;strokeWidth=1;fontFamily=Verdana;fontSize=8;align=center;" parent="77e6c97f196da883-2" vertex="1">
          <mxGeometry x="44" y="127" width="100" height="60" as="geometry" />
        </mxCell>
        <mxCell id="Maf3ZS-bsNXaos74aWMZ-2" value="&lt;font style=&quot;font-size: 11px;&quot;&gt;Call Lamda function&lt;/font&gt;" style="rounded=1;whiteSpace=wrap;html=1;shadow=0;labelBackgroundColor=none;strokeWidth=1;fontFamily=Verdana;fontSize=8;align=center;" parent="77e6c97f196da883-2" vertex="1">
          <mxGeometry x="44" y="421" width="100" height="60" as="geometry" />
        </mxCell>
        <mxCell id="QIpghgLkvMzr6BpzST6K-24" value="" style="edgeStyle=orthogonalEdgeStyle;rounded=0;orthogonalLoop=1;jettySize=auto;html=1;entryX=0.5;entryY=0;entryDx=0;entryDy=0;" parent="77e6c97f196da883-2" source="Maf3ZS-bsNXaos74aWMZ-13" target="Maf3ZS-bsNXaos74aWMZ-21" edge="1">
          <mxGeometry relative="1" as="geometry">
            <mxPoint x="150" y="645" as="targetPoint" />
            <Array as="points">
              <mxPoint x="98" y="584" />
              <mxPoint x="146" y="584" />
              <mxPoint x="146" y="625" />
            </Array>
          </mxGeometry>
        </mxCell>
        <mxCell id="QIpghgLkvMzr6BpzST6K-25" style="edgeStyle=orthogonalEdgeStyle;rounded=0;orthogonalLoop=1;jettySize=auto;html=1;entryX=0.5;entryY=0;entryDx=0;entryDy=0;" parent="77e6c97f196da883-2" source="Maf3ZS-bsNXaos74aWMZ-13" target="Maf3ZS-bsNXaos74aWMZ-14" edge="1">
          <mxGeometry relative="1" as="geometry">
            <Array as="points">
              <mxPoint x="98" y="582" />
              <mxPoint x="55" y="582" />
              <mxPoint x="55" y="661" />
            </Array>
          </mxGeometry>
        </mxCell>
        <mxCell id="Maf3ZS-bsNXaos74aWMZ-13" value="check status" style="rhombus;whiteSpace=wrap;html=1;rounded=0;shadow=0;labelBackgroundColor=none;strokeWidth=1;fontFamily=Verdana;fontSize=8;align=center;" parent="77e6c97f196da883-2" vertex="1">
          <mxGeometry x="58" y="521.5" width="80" height="57" as="geometry" />
        </mxCell>
        <mxCell id="QIpghgLkvMzr6BpzST6K-27" style="edgeStyle=orthogonalEdgeStyle;rounded=0;orthogonalLoop=1;jettySize=auto;html=1;entryX=0.01;entryY=0.5;entryDx=0;entryDy=0;entryPerimeter=0;" parent="77e6c97f196da883-2" source="Maf3ZS-bsNXaos74aWMZ-14" target="Maf3ZS-bsNXaos74aWMZ-2" edge="1">
          <mxGeometry relative="1" as="geometry">
            <mxPoint x="40.60003662109375" y="426.0000305175781" as="targetPoint" />
            <Array as="points">
              <mxPoint x="9" y="701" />
              <mxPoint x="9" y="451" />
            </Array>
          </mxGeometry>
        </mxCell>
        <mxCell id="QIpghgLkvMzr6BpzST6K-28" style="edgeStyle=orthogonalEdgeStyle;rounded=0;orthogonalLoop=1;jettySize=auto;html=1;entryX=0;entryY=0.75;entryDx=0;entryDy=0;exitX=0.5;exitY=1;exitDx=0;exitDy=0;" parent="77e6c97f196da883-2" source="Maf3ZS-bsNXaos74aWMZ-14" target="Maf3ZS-bsNXaos74aWMZ-20" edge="1">
          <mxGeometry relative="1" as="geometry">
            <mxPoint x="58" y="754" as="sourcePoint" />
            <Array as="points">
              <mxPoint x="19" y="741" />
              <mxPoint x="19" y="761" />
              <mxPoint x="17" y="761" />
              <mxPoint x="17" y="812" />
            </Array>
          </mxGeometry>
        </mxCell>
        <mxCell id="Maf3ZS-bsNXaos74aWMZ-14" value="Retry &amp;lt; limit" style="rhombus;whiteSpace=wrap;html=1;" parent="77e6c97f196da883-2" vertex="1">
          <mxGeometry x="18" y="661" width="80" height="80" as="geometry" />
        </mxCell>
        <mxCell id="Maf3ZS-bsNXaos74aWMZ-15" value="is failure" style="text;html=1;align=center;verticalAlign=middle;resizable=0;points=[];autosize=1;strokeColor=none;fillColor=none;" parent="77e6c97f196da883-2" vertex="1">
          <mxGeometry x="35" y="601" width="63" height="26" as="geometry" />
        </mxCell>
        <mxCell id="Maf3ZS-bsNXaos74aWMZ-19" value="Y" style="text;html=1;align=center;verticalAlign=middle;resizable=0;points=[];autosize=1;strokeColor=none;fillColor=none;" parent="77e6c97f196da883-2" vertex="1">
          <mxGeometry y="582" width="26" height="26" as="geometry" />
        </mxCell>
        <mxCell id="Maf3ZS-bsNXaos74aWMZ-20" value="&lt;font style=&quot;font-size: 11px;&quot;&gt;Put event failure&lt;/font&gt;" style="rounded=1;whiteSpace=wrap;html=1;shadow=0;labelBackgroundColor=none;strokeWidth=1;fontFamily=Verdana;fontSize=8;align=center;" parent="77e6c97f196da883-2" vertex="1">
          <mxGeometry x="50.5" y="767" width="87.5" height="60" as="geometry" />
        </mxCell>
        <mxCell id="QIpghgLkvMzr6BpzST6K-29" style="edgeStyle=orthogonalEdgeStyle;rounded=0;orthogonalLoop=1;jettySize=auto;html=1;" parent="77e6c97f196da883-2" source="Maf3ZS-bsNXaos74aWMZ-21" edge="1">
          <mxGeometry relative="1" as="geometry">
            <mxPoint x="231.80001831054688" y="701" as="targetPoint" />
          </mxGeometry>
        </mxCell>
        <mxCell id="Maf3ZS-bsNXaos74aWMZ-21" value="&lt;font style=&quot;font-size: 11px;&quot;&gt;Put event success&lt;/font&gt;" style="rounded=1;whiteSpace=wrap;html=1;shadow=0;labelBackgroundColor=none;strokeWidth=1;fontFamily=Verdana;fontSize=8;align=center;" parent="77e6c97f196da883-2" vertex="1">
          <mxGeometry x="102" y="671" width="87" height="60" as="geometry" />
        </mxCell>
        <mxCell id="QIpghgLkvMzr6BpzST6K-23" value="is success" style="text;html=1;align=center;verticalAlign=middle;resizable=0;points=[];autosize=1;strokeColor=none;fillColor=none;" parent="77e6c97f196da883-2" vertex="1">
          <mxGeometry x="113" y="601" width="73" height="26" as="geometry" />
        </mxCell>
        <mxCell id="77e6c97f196da883-3" value="Event bus" style="swimlane;html=1;startSize=20;" parent="77e6c97f196da883-1" vertex="1">
          <mxGeometry x="201" y="20" width="172" height="863" as="geometry" />
        </mxCell>
        <mxCell id="QIpghgLkvMzr6BpzST6K-5" style="edgeStyle=orthogonalEdgeStyle;rounded=0;orthogonalLoop=1;jettySize=auto;html=1;entryX=0.5;entryY=0;entryDx=0;entryDy=0;" parent="77e6c97f196da883-3" source="77e6c97f196da883-11" target="QIpghgLkvMzr6BpzST6K-1" edge="1">
          <mxGeometry relative="1" as="geometry" />
        </mxCell>
        <mxCell id="77e6c97f196da883-11" value="&lt;font style=&quot;font-size: 11px;&quot;&gt;filter event by detail type and source&lt;/font&gt;" style="rounded=1;whiteSpace=wrap;html=1;shadow=0;labelBackgroundColor=none;strokeWidth=1;fontFamily=Verdana;fontSize=8;align=center;" parent="77e6c97f196da883-3" vertex="1">
          <mxGeometry x="32" y="132" width="100" height="60" as="geometry" />
        </mxCell>
        <mxCell id="QIpghgLkvMzr6BpzST6K-35" style="edgeStyle=orthogonalEdgeStyle;rounded=0;orthogonalLoop=1;jettySize=auto;html=1;" parent="77e6c97f196da883-3" source="Maf3ZS-bsNXaos74aWMZ-38" edge="1">
          <mxGeometry relative="1" as="geometry">
            <mxPoint x="82.5" y="775.5999450683594" as="targetPoint" />
          </mxGeometry>
        </mxCell>
        <mxCell id="Maf3ZS-bsNXaos74aWMZ-38" value="&lt;font style=&quot;font-size: 11px;&quot;&gt;filter event by detail type and source&lt;/font&gt;" style="rounded=1;whiteSpace=wrap;html=1;shadow=0;labelBackgroundColor=none;strokeWidth=1;fontFamily=Verdana;fontSize=8;align=center;" parent="77e6c97f196da883-3" vertex="1">
          <mxGeometry x="29" y="670" width="107" height="60" as="geometry" />
        </mxCell>
        <mxCell id="QIpghgLkvMzr6BpzST6K-1" value="&lt;font style=&quot;font-size: 10px;&quot;&gt;Send event&lt;/font&gt;" style="rounded=1;whiteSpace=wrap;html=1;shadow=0;labelBackgroundColor=none;strokeWidth=1;fontFamily=Verdana;fontSize=8;align=center;" parent="77e6c97f196da883-3" vertex="1">
          <mxGeometry x="32" y="222" width="100" height="52" as="geometry" />
        </mxCell>
        <mxCell id="QIpghgLkvMzr6BpzST6K-39" style="edgeStyle=orthogonalEdgeStyle;rounded=0;orthogonalLoop=1;jettySize=auto;html=1;" parent="77e6c97f196da883-3" source="QIpghgLkvMzr6BpzST6K-2" edge="1">
          <mxGeometry relative="1" as="geometry">
            <mxPoint x="135" y="265" as="targetPoint" />
            <Array as="points">
              <mxPoint x="150" y="811" />
              <mxPoint x="150" y="261" />
              <mxPoint x="135" y="261" />
            </Array>
          </mxGeometry>
        </mxCell>
        <mxCell id="QIpghgLkvMzr6BpzST6K-2" value="&lt;font style=&quot;font-size: 11px;&quot;&gt;Send event&lt;/font&gt;" style="rounded=1;whiteSpace=wrap;html=1;shadow=0;labelBackgroundColor=none;strokeWidth=1;fontFamily=Verdana;fontSize=8;align=center;" parent="77e6c97f196da883-3" vertex="1">
          <mxGeometry x="42" y="781" width="100" height="60" as="geometry" />
        </mxCell>
        <mxCell id="QIpghgLkvMzr6BpzST6K-34" style="edgeStyle=orthogonalEdgeStyle;rounded=0;orthogonalLoop=1;jettySize=auto;html=1;entryX=0;entryY=1;entryDx=0;entryDy=0;" parent="77e6c97f196da883-3" target="Maf3ZS-bsNXaos74aWMZ-38" edge="1">
          <mxGeometry relative="1" as="geometry">
            <mxPoint x="25.60003662109375" y="718.9999450683594" as="targetPoint" />
            <mxPoint x="-61" y="788.4" as="sourcePoint" />
          </mxGeometry>
        </mxCell>
        <mxCell id="77e6c97f196da883-4" value="Lamda function" style="swimlane;html=1;startSize=20;" parent="77e6c97f196da883-1" vertex="1">
          <mxGeometry x="373" y="20" width="234" height="863" as="geometry" />
        </mxCell>
        <mxCell id="QIpghgLkvMzr6BpzST6K-13" style="edgeStyle=orthogonalEdgeStyle;rounded=0;orthogonalLoop=1;jettySize=auto;html=1;" parent="77e6c97f196da883-4" source="53MZQAA7YfgG2Zlfjkk--3" target="uNjCNpkvFwnkPZsFPd4E-6" edge="1">
          <mxGeometry relative="1" as="geometry" />
        </mxCell>
        <mxCell id="53MZQAA7YfgG2Zlfjkk--3" value="&lt;font style=&quot;font-size: 10px;&quot;&gt;Authorize&lt;/font&gt;" style="rounded=1;whiteSpace=wrap;html=1;shadow=0;labelBackgroundColor=none;strokeWidth=1;fontFamily=Verdana;fontSize=8;align=center;" parent="77e6c97f196da883-4" vertex="1">
          <mxGeometry x="55" y="263" width="100" height="52" as="geometry" />
        </mxCell>
        <mxCell id="QIpghgLkvMzr6BpzST6K-21" style="edgeStyle=orthogonalEdgeStyle;rounded=0;orthogonalLoop=1;jettySize=auto;html=1;" parent="77e6c97f196da883-4" source="uNjCNpkvFwnkPZsFPd4E-8" edge="1">
          <mxGeometry relative="1" as="geometry">
            <mxPoint x="109" y="518.800048828125" as="targetPoint" />
          </mxGeometry>
        </mxCell>
        <mxCell id="uNjCNpkvFwnkPZsFPd4E-8" value="&lt;font style=&quot;font-size: 11px;&quot;&gt;Handle input event&lt;/font&gt;" style="rounded=1;whiteSpace=wrap;html=1;shadow=0;labelBackgroundColor=none;strokeWidth=1;fontFamily=Verdana;fontSize=8;align=center;" parent="77e6c97f196da883-4" vertex="1">
          <mxGeometry x="59" y="428" width="100" height="46" as="geometry" />
        </mxCell>
        <mxCell id="uNjCNpkvFwnkPZsFPd4E-6" value="&lt;font style=&quot;font-size: 11px;&quot;&gt;Return&amp;nbsp;authorize result&lt;/font&gt;" style="rounded=1;whiteSpace=wrap;html=1;shadow=0;labelBackgroundColor=none;strokeWidth=1;fontFamily=Verdana;fontSize=8;align=center;" parent="77e6c97f196da883-4" vertex="1">
          <mxGeometry x="28" y="348" width="154" height="53" as="geometry" />
        </mxCell>
        <mxCell id="uNjCNpkvFwnkPZsFPd4E-11" value="&lt;font style=&quot;font-size: 11px;&quot;&gt;Return result&lt;/font&gt;" style="rounded=1;whiteSpace=wrap;html=1;shadow=0;labelBackgroundColor=none;strokeWidth=1;fontFamily=Verdana;fontSize=8;align=center;" parent="77e6c97f196da883-4" vertex="1">
          <mxGeometry x="63" y="520" width="100" height="60" as="geometry" />
        </mxCell>
        <mxCell id="77e6c97f196da883-5" value="Appsync/Graphql" style="swimlane;html=1;startSize=20;" parent="77e6c97f196da883-1" vertex="1">
          <mxGeometry x="607" y="20" width="225" height="863" as="geometry" />
        </mxCell>
        <mxCell id="QIpghgLkvMzr6BpzST6K-16" style="edgeStyle=orthogonalEdgeStyle;rounded=0;orthogonalLoop=1;jettySize=auto;html=1;" parent="77e6c97f196da883-5" source="77e6c97f196da883-15" edge="1">
          <mxGeometry relative="1" as="geometry">
            <mxPoint x="282.4000244140625" y="504" as="targetPoint" />
          </mxGeometry>
        </mxCell>
        <mxCell id="77e6c97f196da883-15" value="&lt;font style=&quot;font-size: 11px;&quot;&gt;Create&amp;nbsp;&lt;br&gt;Subscription&lt;/font&gt;" style="rounded=1;whiteSpace=wrap;html=1;shadow=0;labelBackgroundColor=none;strokeWidth=1;fontFamily=Verdana;fontSize=8;align=center;" parent="77e6c97f196da883-5" vertex="1">
          <mxGeometry x="52" y="474" width="105" height="60" as="geometry" />
        </mxCell>
        <mxCell id="QIpghgLkvMzr6BpzST6K-10" style="edgeStyle=orthogonalEdgeStyle;rounded=0;orthogonalLoop=1;jettySize=auto;html=1;" parent="77e6c97f196da883-5" source="Maf3ZS-bsNXaos74aWMZ-4" target="77e6c97f196da883-15" edge="1">
          <mxGeometry relative="1" as="geometry">
            <Array as="points">
              <mxPoint x="203" y="230" />
              <mxPoint x="203" y="485" />
            </Array>
          </mxGeometry>
        </mxCell>
        <mxCell id="Maf3ZS-bsNXaos74aWMZ-4" value="Authorize valid&lt;br&gt;&amp;nbsp;in cache?" style="rhombus;whiteSpace=wrap;html=1;" parent="77e6c97f196da883-5" vertex="1">
          <mxGeometry x="29" y="190" width="119" height="80" as="geometry" />
        </mxCell>
        <mxCell id="53MZQAA7YfgG2Zlfjkk--2" value="isAuthorized?" style="rhombus;whiteSpace=wrap;html=1;rounded=0;shadow=0;labelBackgroundColor=none;strokeWidth=1;fontFamily=Verdana;fontSize=8;align=center;" parent="77e6c97f196da883-5" vertex="1">
          <mxGeometry x="56" y="341" width="80" height="60" as="geometry" />
        </mxCell>
        <mxCell id="Maf3ZS-bsNXaos74aWMZ-28" value="Y" style="text;html=1;align=center;verticalAlign=middle;resizable=0;points=[];autosize=1;strokeColor=none;fillColor=none;" parent="77e6c97f196da883-5" vertex="1">
          <mxGeometry x="169" y="195" width="26" height="26" as="geometry" />
        </mxCell>
        <mxCell id="QIpghgLkvMzr6BpzST6K-15" style="edgeStyle=orthogonalEdgeStyle;rounded=0;orthogonalLoop=1;jettySize=auto;html=1;entryX=0.427;entryY=0.04;entryDx=0;entryDy=0;entryPerimeter=0;" parent="77e6c97f196da883-5" source="53MZQAA7YfgG2Zlfjkk--2" target="77e6c97f196da883-15" edge="1">
          <mxGeometry relative="1" as="geometry" />
        </mxCell>
        <mxCell id="QIpghgLkvMzr6BpzST6K-37" value="N" style="text;html=1;align=center;verticalAlign=middle;resizable=0;points=[];autosize=1;strokeColor=none;fillColor=none;" parent="77e6c97f196da883-5" vertex="1">
          <mxGeometry x="47" y="270" width="27" height="26" as="geometry" />
        </mxCell>
        <mxCell id="Maf3ZS-bsNXaos74aWMZ-5" value="Client(React App...)" style="swimlane;html=1;startSize=20;" parent="77e6c97f196da883-1" vertex="1">
          <mxGeometry x="832" y="20" width="204" height="863" as="geometry" />
        </mxCell>
        <mxCell id="Maf3ZS-bsNXaos74aWMZ-6" value="&lt;font style=&quot;font-size: 11px;&quot;&gt;Receive&amp;nbsp; status and display&lt;/font&gt;" style="rounded=1;whiteSpace=wrap;html=1;shadow=0;labelBackgroundColor=none;strokeWidth=1;fontFamily=Verdana;fontSize=8;align=center;" parent="Maf3ZS-bsNXaos74aWMZ-5" vertex="1">
          <mxGeometry x="59" y="474" width="100" height="60" as="geometry" />
        </mxCell>
        <mxCell id="QIpghgLkvMzr6BpzST6K-8" style="edgeStyle=orthogonalEdgeStyle;rounded=0;orthogonalLoop=1;jettySize=auto;html=1;entryX=0;entryY=0.5;entryDx=0;entryDy=0;" parent="77e6c97f196da883-1" source="QIpghgLkvMzr6BpzST6K-1" target="Maf3ZS-bsNXaos74aWMZ-4" edge="1">
          <mxGeometry relative="1" as="geometry" />
        </mxCell>
        <mxCell id="QIpghgLkvMzr6BpzST6K-11" style="edgeStyle=orthogonalEdgeStyle;rounded=0;orthogonalLoop=1;jettySize=auto;html=1;entryX=1;entryY=0.75;entryDx=0;entryDy=0;" parent="77e6c97f196da883-1" source="Maf3ZS-bsNXaos74aWMZ-4" target="53MZQAA7YfgG2Zlfjkk--3" edge="1">
          <mxGeometry relative="1" as="geometry">
            <Array as="points">
              <mxPoint x="696" y="322" />
            </Array>
          </mxGeometry>
        </mxCell>
        <mxCell id="QIpghgLkvMzr6BpzST6K-14" style="edgeStyle=orthogonalEdgeStyle;rounded=0;orthogonalLoop=1;jettySize=auto;html=1;entryX=0.105;entryY=0.55;entryDx=0;entryDy=0;entryPerimeter=0;" parent="77e6c97f196da883-1" source="uNjCNpkvFwnkPZsFPd4E-6" target="53MZQAA7YfgG2Zlfjkk--2" edge="1">
          <mxGeometry relative="1" as="geometry" />
        </mxCell>
        <mxCell id="QIpghgLkvMzr6BpzST6K-17" style="edgeStyle=orthogonalEdgeStyle;rounded=0;orthogonalLoop=1;jettySize=auto;html=1;entryX=1;entryY=0.75;entryDx=0;entryDy=0;" parent="77e6c97f196da883-1" source="Maf3ZS-bsNXaos74aWMZ-6" target="77e6c97f196da883-15" edge="1">
          <mxGeometry relative="1" as="geometry">
            <Array as="points">
              <mxPoint x="857" y="539" />
              <mxPoint x="857" y="539" />
            </Array>
          </mxGeometry>
        </mxCell>
        <mxCell id="QIpghgLkvMzr6BpzST6K-19" style="edgeStyle=orthogonalEdgeStyle;rounded=0;orthogonalLoop=1;jettySize=auto;html=1;entryX=0;entryY=0.5;entryDx=0;entryDy=0;" parent="77e6c97f196da883-1" source="Maf3ZS-bsNXaos74aWMZ-2" target="uNjCNpkvFwnkPZsFPd4E-8" edge="1">
          <mxGeometry relative="1" as="geometry" />
        </mxCell>
        <mxCell id="QIpghgLkvMzr6BpzST6K-22" style="edgeStyle=orthogonalEdgeStyle;rounded=0;orthogonalLoop=1;jettySize=auto;html=1;entryX=1;entryY=0.5;entryDx=0;entryDy=0;" parent="77e6c97f196da883-1" source="uNjCNpkvFwnkPZsFPd4E-11" target="Maf3ZS-bsNXaos74aWMZ-13" edge="1">
          <mxGeometry relative="1" as="geometry" />
        </mxCell>
        <mxCell id="QIpghgLkvMzr6BpzST6K-38" value="N" style="text;html=1;align=center;verticalAlign=middle;resizable=0;points=[];autosize=1;strokeColor=none;fillColor=none;" parent="1" vertex="1">
          <mxGeometry x="39" y="796" width="27" height="26" as="geometry" />
        </mxCell>
      </root>
    </mxGraphModel>
  </diagram>
</mxfile>
